<mxfile host="app.diagrams.net" agent="Mozilla/5.0 (Windows NT 10.0; Win64; x64; rv:133.0) Gecko/20100101 Firefox/133.0" version="26.0.2">
  <diagram name="Page-1" id="vuSgTMur1dU2VjeQJy-u">
    <mxGraphModel dx="758" dy="442" grid="1" gridSize="10" guides="1" tooltips="1" connect="1" arrows="1" fold="1" page="1" pageScale="1" pageWidth="850" pageHeight="1100" math="0" shadow="0">
      <root>
        <mxCell id="0" />
        <mxCell id="1" parent="0" />
        <mxCell id="32YWPn5Q24CfJQvA8Bju-8" value="&lt;b&gt;NextJS&lt;/b&gt;" style="rounded=0;whiteSpace=wrap;html=1;" parent="1" vertex="1">
          <mxGeometry x="560" y="480" width="70" height="40" as="geometry" />
        </mxCell>
        <mxCell id="aPiWDFxyx-el2CXWiRQX-10" value="ingest" style="edgeStyle=orthogonalEdgeStyle;rounded=0;orthogonalLoop=1;jettySize=auto;html=1;entryX=1;entryY=0.5;entryDx=0;entryDy=0;" edge="1" parent="1" source="32YWPn5Q24CfJQvA8Bju-9" target="32YWPn5Q24CfJQvA8Bju-37">
          <mxGeometry x="0.3043" relative="1" as="geometry">
            <Array as="points">
              <mxPoint x="490" y="485" />
            </Array>
            <mxPoint as="offset" />
          </mxGeometry>
        </mxCell>
        <mxCell id="aPiWDFxyx-el2CXWiRQX-13" style="edgeStyle=orthogonalEdgeStyle;rounded=0;orthogonalLoop=1;jettySize=auto;html=1;entryX=0;entryY=0.25;entryDx=0;entryDy=0;startArrow=classic;startFill=1;" edge="1" parent="1" source="32YWPn5Q24CfJQvA8Bju-9" target="32YWPn5Q24CfJQvA8Bju-8">
          <mxGeometry relative="1" as="geometry">
            <Array as="points">
              <mxPoint x="510" y="490" />
            </Array>
          </mxGeometry>
        </mxCell>
        <mxCell id="32YWPn5Q24CfJQvA8Bju-9" value="" style="rounded=0;whiteSpace=wrap;html=1;strokeWidth=1;fillColor=none;strokeColor=#9673a6;" parent="1" vertex="1">
          <mxGeometry x="450" y="300" width="100" height="130" as="geometry" />
        </mxCell>
        <mxCell id="aPiWDFxyx-el2CXWiRQX-4" style="edgeStyle=orthogonalEdgeStyle;rounded=0;orthogonalLoop=1;jettySize=auto;html=1;entryX=0;entryY=0.5;entryDx=0;entryDy=0;" edge="1" parent="1" source="32YWPn5Q24CfJQvA8Bju-12" target="32YWPn5Q24CfJQvA8Bju-9">
          <mxGeometry relative="1" as="geometry">
            <Array as="points">
              <mxPoint x="380" y="365" />
            </Array>
          </mxGeometry>
        </mxCell>
        <mxCell id="aPiWDFxyx-el2CXWiRQX-8" style="edgeStyle=orthogonalEdgeStyle;rounded=0;orthogonalLoop=1;jettySize=auto;html=1;" edge="1" parent="1" source="32YWPn5Q24CfJQvA8Bju-12">
          <mxGeometry relative="1" as="geometry">
            <mxPoint x="380" y="240" as="targetPoint" />
            <Array as="points">
              <mxPoint x="380" y="290" />
              <mxPoint x="380" y="290" />
            </Array>
          </mxGeometry>
        </mxCell>
        <mxCell id="32YWPn5Q24CfJQvA8Bju-12" value="script.py" style="rounded=0;whiteSpace=wrap;html=1;" parent="1" vertex="1">
          <mxGeometry x="320" y="330" width="70" height="20" as="geometry" />
        </mxCell>
        <mxCell id="32YWPn5Q24CfJQvA8Bju-22" value="broker-1" style="rounded=0;whiteSpace=wrap;html=1;fillColor=#e1d5e7;strokeColor=#9673a6;" parent="1" vertex="1">
          <mxGeometry x="460" y="310" width="80" height="20" as="geometry" />
        </mxCell>
        <mxCell id="32YWPn5Q24CfJQvA8Bju-23" value="broker-2" style="rounded=0;whiteSpace=wrap;html=1;fillColor=#e1d5e7;strokeColor=#9673a6;" parent="1" vertex="1">
          <mxGeometry x="460" y="340" width="80" height="20" as="geometry" />
        </mxCell>
        <mxCell id="32YWPn5Q24CfJQvA8Bju-24" value="broker-3" style="rounded=0;whiteSpace=wrap;html=1;fillColor=#e1d5e7;strokeColor=#9673a6;" parent="1" vertex="1">
          <mxGeometry x="460" y="370" width="80" height="20" as="geometry" />
        </mxCell>
        <mxCell id="32YWPn5Q24CfJQvA8Bju-25" value="controller1" style="rounded=0;whiteSpace=wrap;html=1;fillColor=#e1d5e7;strokeColor=#9673a6;" parent="1" vertex="1">
          <mxGeometry x="460" y="400" width="60.03" height="20" as="geometry" />
        </mxCell>
        <mxCell id="32YWPn5Q24CfJQvA8Bju-26" value="2" style="rounded=0;whiteSpace=wrap;html=1;fillColor=#e1d5e7;strokeColor=#9673a6;" parent="1" vertex="1">
          <mxGeometry x="520.03" y="400" width="10" height="20" as="geometry" />
        </mxCell>
        <mxCell id="32YWPn5Q24CfJQvA8Bju-27" value="3" style="rounded=0;whiteSpace=wrap;html=1;fillColor=#e1d5e7;strokeColor=#9673a6;" parent="1" vertex="1">
          <mxGeometry x="530" y="400" width="10" height="20" as="geometry" />
        </mxCell>
        <mxCell id="aPiWDFxyx-el2CXWiRQX-12" style="edgeStyle=orthogonalEdgeStyle;rounded=0;orthogonalLoop=1;jettySize=auto;html=1;entryX=0;entryY=0.5;entryDx=0;entryDy=0;startArrow=classic;startFill=1;" edge="1" parent="1" source="32YWPn5Q24CfJQvA8Bju-37" target="32YWPn5Q24CfJQvA8Bju-8">
          <mxGeometry relative="1" as="geometry">
            <Array as="points">
              <mxPoint x="430" y="500" />
              <mxPoint x="430" y="500" />
            </Array>
          </mxGeometry>
        </mxCell>
        <mxCell id="32YWPn5Q24CfJQvA8Bju-37" value="" style="rounded=0;whiteSpace=wrap;html=1;strokeWidth=1;fillColor=none;strokeColor=#6c8ebf;" parent="1" vertex="1">
          <mxGeometry x="330" y="420" width="100" height="130" as="geometry" />
        </mxCell>
        <mxCell id="32YWPn5Q24CfJQvA8Bju-38" value="chnode1" style="rounded=0;whiteSpace=wrap;html=1;fillColor=#dae8fc;strokeColor=#6c8ebf;" parent="1" vertex="1">
          <mxGeometry x="340" y="430" width="80" height="20" as="geometry" />
        </mxCell>
        <mxCell id="32YWPn5Q24CfJQvA8Bju-39" value="chnode2" style="rounded=0;whiteSpace=wrap;html=1;fillColor=#dae8fc;strokeColor=#6c8ebf;" parent="1" vertex="1">
          <mxGeometry x="340" y="460" width="80" height="20" as="geometry" />
        </mxCell>
        <mxCell id="32YWPn5Q24CfJQvA8Bju-40" value="chnode3" style="rounded=0;whiteSpace=wrap;html=1;fillColor=#dae8fc;strokeColor=#6c8ebf;" parent="1" vertex="1">
          <mxGeometry x="340" y="490" width="80" height="20" as="geometry" />
        </mxCell>
        <mxCell id="32YWPn5Q24CfJQvA8Bju-41" value="Keeper1" style="rounded=0;whiteSpace=wrap;html=1;fillColor=#dae8fc;strokeColor=#6c8ebf;" parent="1" vertex="1">
          <mxGeometry x="340" y="520" width="60.03" height="20" as="geometry" />
        </mxCell>
        <mxCell id="32YWPn5Q24CfJQvA8Bju-42" value="2" style="rounded=0;whiteSpace=wrap;html=1;fillColor=#dae8fc;strokeColor=#6c8ebf;" parent="1" vertex="1">
          <mxGeometry x="400.03" y="520" width="10" height="20" as="geometry" />
        </mxCell>
        <mxCell id="32YWPn5Q24CfJQvA8Bju-43" value="3" style="rounded=0;whiteSpace=wrap;html=1;fillColor=#dae8fc;strokeColor=#6c8ebf;" parent="1" vertex="1">
          <mxGeometry x="410" y="520" width="10" height="20" as="geometry" />
        </mxCell>
        <mxCell id="32YWPn5Q24CfJQvA8Bju-44" value="Kafka" style="text;html=1;align=center;verticalAlign=middle;resizable=0;points=[];autosize=1;strokeColor=none;fillColor=none;fontStyle=1" parent="1" vertex="1">
          <mxGeometry x="440" y="280" width="50" height="30" as="geometry" />
        </mxCell>
        <mxCell id="32YWPn5Q24CfJQvA8Bju-45" value="ClickHouse" style="text;html=1;align=center;verticalAlign=middle;resizable=0;points=[];autosize=1;strokeColor=none;fillColor=none;fontStyle=1" parent="1" vertex="1">
          <mxGeometry x="320.03" y="400" width="80" height="30" as="geometry" />
        </mxCell>
        <mxCell id="aPiWDFxyx-el2CXWiRQX-3" value="produce" style="edgeStyle=orthogonalEdgeStyle;rounded=0;orthogonalLoop=1;jettySize=auto;html=1;entryX=0;entryY=0.5;entryDx=0;entryDy=0;" edge="1" parent="1" source="aPiWDFxyx-el2CXWiRQX-1" target="32YWPn5Q24CfJQvA8Bju-9">
          <mxGeometry relative="1" as="geometry">
            <Array as="points">
              <mxPoint x="410" y="340" />
              <mxPoint x="410" y="365" />
            </Array>
          </mxGeometry>
        </mxCell>
        <mxCell id="aPiWDFxyx-el2CXWiRQX-1" value="..." style="rounded=0;whiteSpace=wrap;html=1;" vertex="1" parent="1">
          <mxGeometry x="390" y="330" width="10" height="20" as="geometry" />
        </mxCell>
        <mxCell id="aPiWDFxyx-el2CXWiRQX-2" value="CronJob" style="text;html=1;align=center;verticalAlign=middle;resizable=0;points=[];autosize=1;strokeColor=none;fillColor=none;fontStyle=1" vertex="1" parent="1">
          <mxGeometry x="310" y="310" width="70" height="30" as="geometry" />
        </mxCell>
        <mxCell id="aPiWDFxyx-el2CXWiRQX-6" value="Open-Meteo API" style="text;html=1;align=center;verticalAlign=middle;resizable=0;points=[];autosize=1;strokeColor=none;fillColor=none;fontStyle=1" vertex="1" parent="1">
          <mxGeometry x="320" y="210" width="110" height="30" as="geometry" />
        </mxCell>
        <mxCell id="aPiWDFxyx-el2CXWiRQX-9" style="edgeStyle=orthogonalEdgeStyle;rounded=0;orthogonalLoop=1;jettySize=auto;html=1;" edge="1" parent="1" source="aPiWDFxyx-el2CXWiRQX-1">
          <mxGeometry relative="1" as="geometry">
            <mxPoint x="380" y="240" as="targetPoint" />
            <Array as="points">
              <mxPoint x="395" y="310" />
              <mxPoint x="380" y="310" />
            </Array>
          </mxGeometry>
        </mxCell>
        <mxCell id="aPiWDFxyx-el2CXWiRQX-11" value="..." style="rounded=0;whiteSpace=wrap;html=1;" vertex="1" parent="1">
          <mxGeometry x="630" y="480" width="10" height="40" as="geometry" />
        </mxCell>
      </root>
    </mxGraphModel>
  </diagram>
</mxfile>
